<mxfile host="65bd71144e">
    <diagram id="D-QdtO7kYLtyJFVSLHMK" name="Page-1">
        <mxGraphModel dx="1878" dy="705" grid="1" gridSize="10" guides="1" tooltips="1" connect="1" arrows="1" fold="1" page="1" pageScale="1" pageWidth="850" pageHeight="1100" math="0" shadow="0">
            <root>
                <mxCell id="0"/>
                <mxCell id="1" parent="0"/>
                <mxCell id="2" value="&lt;span style=&quot;color: rgb(51, 51, 51); font-family: georgia, times, &amp;quot;times new roman&amp;quot;, serif; font-size: 14px; font-style: normal; font-weight: 400; letter-spacing: normal; text-indent: 0px; text-transform: none; word-spacing: 0px; background-color: rgb(255, 255, 255); display: inline; float: none;&quot;&gt;Complete the following tasks:&lt;/span&gt;&lt;br style=&quot;color: rgb(51, 51, 51); font-family: georgia, times, &amp;quot;times new roman&amp;quot;, serif; font-size: 14px; font-style: normal; font-weight: 400; letter-spacing: normal; text-indent: 0px; text-transform: none; word-spacing: 0px; background-color: rgb(255, 255, 255);&quot;&gt;&lt;br style=&quot;color: rgb(51, 51, 51); font-family: georgia, times, &amp;quot;times new roman&amp;quot;, serif; font-size: 14px; font-style: normal; font-weight: 400; letter-spacing: normal; text-indent: 0px; text-transform: none; word-spacing: 0px; background-color: rgb(255, 255, 255);&quot;&gt;&lt;span style=&quot;color: rgb(51, 51, 51); font-family: georgia, times, &amp;quot;times new roman&amp;quot;, serif; font-size: 14px; font-style: normal; font-weight: 400; letter-spacing: normal; text-indent: 0px; text-transform: none; word-spacing: 0px; background-color: rgb(255, 255, 255); display: inline; float: none;&quot;&gt;a. Design a class named Book that holds a stock number, author, title, price, and number of pages. Include methods to set and get the values for each data field. Also include a displayInfo() method that displays each of the Book's data fields with explanations.&lt;/span&gt;&lt;br style=&quot;color: rgb(51, 51, 51); font-family: georgia, times, &amp;quot;times new roman&amp;quot;, serif; font-size: 14px; font-style: normal; font-weight: 400; letter-spacing: normal; text-indent: 0px; text-transform: none; word-spacing: 0px; background-color: rgb(255, 255, 255);&quot;&gt;&lt;br style=&quot;color: rgb(51, 51, 51); font-family: georgia, times, &amp;quot;times new roman&amp;quot;, serif; font-size: 14px; font-style: normal; font-weight: 400; letter-spacing: normal; text-indent: 0px; text-transform: none; word-spacing: 0px; background-color: rgb(255, 255, 255);&quot;&gt;&lt;span style=&quot;color: rgb(51, 51, 51); font-family: georgia, times, &amp;quot;times new roman&amp;quot;, serif; font-size: 14px; font-style: normal; font-weight: 400; letter-spacing: normal; text-indent: 0px; text-transform: none; word-spacing: 0px; background-color: rgb(255, 255, 255); display: inline; float: none;&quot;&gt;b. Design a class named TextBook that is a child class of Book. Include a new data field for the grade level of the book. Override the Book class displayInfo() method to accommodate the new grade-level field.&lt;/span&gt;&lt;br style=&quot;color: rgb(51, 51, 51); font-family: georgia, times, &amp;quot;times new roman&amp;quot;, serif; font-size: 14px; font-style: normal; font-weight: 400; letter-spacing: normal; text-indent: 0px; text-transform: none; word-spacing: 0px; background-color: rgb(255, 255, 255);&quot;&gt;&lt;br style=&quot;color: rgb(51, 51, 51); font-family: georgia, times, &amp;quot;times new roman&amp;quot;, serif; font-size: 14px; font-style: normal; font-weight: 400; letter-spacing: normal; text-indent: 0px; text-transform: none; word-spacing: 0px; background-color: rgb(255, 255, 255);&quot;&gt;&lt;span style=&quot;color: rgb(51, 51, 51); font-family: georgia, times, &amp;quot;times new roman&amp;quot;, serif; font-size: 14px; font-style: normal; font-weight: 400; letter-spacing: normal; text-indent: 0px; text-transform: none; word-spacing: 0px; background-color: rgb(255, 255, 255); display: inline; float: none;&quot;&gt;c. Design an application that instantiates an object of each type and demonstrates all the methods.&lt;/span&gt;" style="text;whiteSpace=wrap;html=1;" parent="1" vertex="1">
                    <mxGeometry y="140" width="550" height="200" as="geometry"/>
                </mxCell>
                <mxCell id="3" value="Class Book&lt;br&gt;&amp;nbsp; &amp;nbsp;Declarations&lt;br&gt;&amp;nbsp; &amp;nbsp; &amp;nbsp; private num stock&lt;br&gt;&amp;nbsp; &amp;nbsp; &amp;nbsp; private string author&lt;br&gt;&amp;nbsp; &amp;nbsp; &amp;nbsp; private string title&lt;br&gt;&amp;nbsp; &amp;nbsp; &amp;nbsp; private num price&lt;br&gt;&amp;nbsp; &amp;nbsp; &amp;nbsp; private num pages&lt;br&gt;&lt;br&gt;&amp;nbsp; &amp;nbsp;public void setStock(num sto)&lt;br&gt;&amp;nbsp; &amp;nbsp;stock = sto&lt;br&gt;&amp;nbsp; &amp;nbsp;return&lt;br&gt;&lt;br&gt;&amp;nbsp; &amp;nbsp;public void setAuthor(string auth)&lt;br&gt;&amp;nbsp; &amp;nbsp;author = auth&lt;br&gt;&amp;nbsp; &amp;nbsp;return&lt;br&gt;&lt;br&gt;&amp;nbsp; &amp;nbsp;public void setTitle(string tit)&lt;br&gt;&amp;nbsp; &amp;nbsp;title = tit&lt;br&gt;&amp;nbsp; &amp;nbsp;return&lt;br&gt;&lt;br&gt;&amp;nbsp; &amp;nbsp;public void setPrice(num pric)&lt;br&gt;&amp;nbsp; &amp;nbsp;price = pric&lt;br&gt;&amp;nbsp; &amp;nbsp;return&lt;br&gt;&lt;br&gt;&amp;nbsp; &amp;nbsp;public void setPages(num pag)&lt;br&gt;&amp;nbsp; &amp;nbsp;pages = pag&lt;br&gt;&amp;nbsp; &amp;nbsp;return&lt;br&gt;&lt;br&gt;&amp;nbsp; &amp;nbsp;public num getStock()&lt;br&gt;&amp;nbsp; &amp;nbsp;return stock&lt;br&gt;&lt;br&gt;&amp;nbsp; &amp;nbsp;public string getAuthor()&lt;br&gt;&amp;nbsp; &amp;nbsp;return author&lt;br&gt;&lt;br&gt;&amp;nbsp; &amp;nbsp;public string getTitle()&lt;br&gt;&amp;nbsp; &amp;nbsp;return title&lt;br&gt;&lt;br&gt;&amp;nbsp; &amp;nbsp;public num getPrice()&lt;br&gt;&amp;nbsp; &amp;nbsp;return price&lt;br&gt;&lt;br&gt;&amp;nbsp; &amp;nbsp;public num getPages()&lt;br&gt;&amp;nbsp; &amp;nbsp;return pages&lt;br&gt;&lt;br&gt;&amp;nbsp; &amp;nbsp;public void displayInfo()&lt;br&gt;&amp;nbsp; &amp;nbsp;output &quot;Stock number :&quot;, stock&lt;br&gt;&amp;nbsp; &amp;nbsp;output &quot;Author :&quot;, author&lt;br&gt;&amp;nbsp; &amp;nbsp;output &quot;Title : &quot;, title&lt;br&gt;&amp;nbsp; &amp;nbsp;output &quot;Cost :&quot;, price&lt;br&gt;&amp;nbsp; &amp;nbsp;output &quot;Number of Pages: &quot;, pages&lt;br&gt;&amp;nbsp; &amp;nbsp;return" style="whiteSpace=wrap;html=1;align=left;" vertex="1" parent="1">
                    <mxGeometry x="330" y="370" width="350" height="720" as="geometry"/>
                </mxCell>
                <mxCell id="4" value="Book" style="whiteSpace=wrap;html=1;align=left;" vertex="1" parent="1">
                    <mxGeometry x="-20" y="370" width="340" height="60" as="geometry"/>
                </mxCell>
                <mxCell id="5" value="stock : num&lt;br&gt;author : string&lt;br&gt;title : string&lt;br&gt;price : num&lt;br&gt;pages : num" style="whiteSpace=wrap;html=1;align=left;" vertex="1" parent="1">
                    <mxGeometry x="-20" y="430" width="340" height="90" as="geometry"/>
                </mxCell>
                <mxCell id="6" value="setStock(sto : num) : void&lt;br&gt;setAuthor( auth : string) : void&lt;br&gt;setTitle( tit : string) : void&lt;br&gt;setPrice( pric : num) : void&lt;br&gt;setPages( pag : num) void&lt;br&gt;getStock() : num&lt;br&gt;getAuthor() : string&lt;br&gt;getTitle() : string&lt;br&gt;getPrice() : num&lt;br&gt;displayInfo() : void" style="whiteSpace=wrap;html=1;align=left;" vertex="1" parent="1">
                    <mxGeometry x="-20" y="520" width="340" height="220" as="geometry"/>
                </mxCell>
                <mxCell id="7" value="A)" style="text;html=1;align=center;verticalAlign=middle;resizable=0;points=[];autosize=1;strokeColor=none;fillColor=none;" vertex="1" parent="1">
                    <mxGeometry x="-60" y="370" width="30" height="20" as="geometry"/>
                </mxCell>
                <mxCell id="10" value="" style="edgeStyle=none;html=1;" edge="1" parent="1" source="8" target="9">
                    <mxGeometry relative="1" as="geometry"/>
                </mxCell>
                <mxCell id="8" value="C)" style="text;html=1;align=center;verticalAlign=middle;resizable=0;points=[];autosize=1;strokeColor=none;fillColor=none;" vertex="1" parent="1">
                    <mxGeometry x="710" y="440" width="30" height="20" as="geometry"/>
                </mxCell>
                <mxCell id="9" value="Start&amp;nbsp;&lt;br&gt;&amp;nbsp; &amp;nbsp;Declarations&lt;br&gt;&amp;nbsp; &amp;nbsp; &amp;nbsp; Book book1&amp;nbsp;&lt;br&gt;&amp;nbsp; &amp;nbsp; &amp;nbsp; TextBook book2&lt;br&gt;&lt;br&gt;&amp;nbsp; &amp;nbsp; &amp;nbsp; book1.setStock(1)&lt;br&gt;&amp;nbsp; &amp;nbsp; &amp;nbsp; book1.setAuthor('Charles Dickens')&lt;br&gt;&amp;nbsp; &amp;nbsp; &amp;nbsp; book1.setTitle('A Christmas Carol')&lt;br&gt;&amp;nbsp; &amp;nbsp; &amp;nbsp; book1.setPrice(10)&lt;br&gt;&amp;nbsp; &amp;nbsp; &amp;nbsp; book1.setPages(100)&lt;br&gt;&amp;nbsp; &amp;nbsp; &amp;nbsp; book1.displayInfo()&lt;br&gt;&lt;br&gt;&amp;nbsp; &amp;nbsp; &amp;nbsp; book2.setGrade(5)&lt;br&gt;&amp;nbsp; &amp;nbsp; &amp;nbsp; book2.setStock(2)&lt;br&gt;&amp;nbsp; &amp;nbsp; &amp;nbsp; book2.setAuthor('Upton Sinclair')&lt;br&gt;&amp;nbsp; &amp;nbsp; &amp;nbsp; book2.setTitle('Catch 22')&lt;br&gt;&amp;nbsp; &amp;nbsp; &amp;nbsp; book2.setPrice(15)&lt;br&gt;&amp;nbsp; &amp;nbsp; &amp;nbsp; book2.setPages(200)&lt;br&gt;&amp;nbsp; &amp;nbsp; &amp;nbsp; book2.displayInfo()&lt;br&gt;Stop" style="whiteSpace=wrap;html=1;align=left;" vertex="1" parent="1">
                    <mxGeometry x="775" y="420" width="300" height="310" as="geometry"/>
                </mxCell>
                <mxCell id="13" value="" style="edgeStyle=none;html=1;" edge="1" parent="1" source="11" target="12">
                    <mxGeometry relative="1" as="geometry"/>
                </mxCell>
                <mxCell id="11" value="B)" style="text;html=1;align=center;verticalAlign=middle;resizable=0;points=[];autosize=1;strokeColor=none;fillColor=none;" vertex="1" parent="1">
                    <mxGeometry x="615" y="80" width="30" height="20" as="geometry"/>
                </mxCell>
                <mxCell id="12" value="Class TextBook inheritsFrom Book&lt;br&gt;&amp;nbsp; &amp;nbsp;Declarations&lt;br&gt;&amp;nbsp; &amp;nbsp; &amp;nbsp; private num gradeLevel&lt;br&gt;&amp;nbsp; &amp;nbsp;&lt;br&gt;public void setGrade(num grade)&lt;br&gt;&amp;nbsp; &amp;nbsp;gradeLevel = grade&lt;br&gt;&amp;nbsp; &amp;nbsp;return&lt;br&gt;public num getGrade()&lt;br&gt;&amp;nbsp; &amp;nbsp;return gradeLevel&lt;br&gt;&lt;br&gt;&amp;nbsp; &amp;nbsp;public void displayInfo()&lt;br&gt;&amp;nbsp; &amp;nbsp;output &quot;Grade level :&quot;, gradeLevel&lt;br&gt;&amp;nbsp; &amp;nbsp;output &quot;Stock number :&quot;, stock&lt;br&gt;&amp;nbsp; &amp;nbsp;output &quot;Author :&quot;, author&lt;br&gt;&amp;nbsp; &amp;nbsp;output &quot;Title : &quot;, title&lt;br&gt;&amp;nbsp; &amp;nbsp;output &quot;Cost :&quot;, price&lt;br&gt;&amp;nbsp; &amp;nbsp;output &quot;Number of Pages: &quot;, pages&lt;br&gt;&amp;nbsp; &amp;nbsp;return&lt;br&gt;&amp;nbsp; &amp;nbsp;" style="whiteSpace=wrap;html=1;align=left;" vertex="1" parent="1">
                    <mxGeometry x="680" y="60" width="350" height="300" as="geometry"/>
                </mxCell>
            </root>
        </mxGraphModel>
    </diagram>
</mxfile>